<svg width="153" height="50" viewBox="0 0 153 50" fill="none" xmlns="http://www.w3.org/2000/svg">
    <path d="M147.701 16.6456C147.848 16.6456 148.017 16.6878 148.122 16.8144C148.228 16.9409 148.291 17.0886 148.27 17.2574V20.9494C148.27 21.1182 148.228 21.2658 148.122 21.3924C148.017 21.4979 147.848 21.5612 147.701 21.5612H144.62V36.2447C144.62 36.4135 144.578 36.5612 144.473 36.6878C144.367 36.7933 144.198 36.8566 144.051 36.8566H139.43C139.283 36.8566 139.114 36.8144 139.009 36.6878C138.903 36.5612 138.84 36.4135 138.861 36.2447V21.5612H135.781C135.633 21.5612 135.464 21.519 135.359 21.3924C135.253 21.2658 135.19 21.1182 135.211 20.9494V17.2574C135.211 17.0886 135.253 16.9409 135.359 16.8144C135.464 16.7089 135.633 16.6456 135.781 16.6456H138.861V11.4768C138.861 11.308 138.903 11.1603 139.009 11.0338C139.114 10.9283 139.283 10.865 139.43 10.865H144.051C144.198 10.865 144.367 10.9072 144.473 11.0338C144.578 11.1603 144.641 11.308 144.62 11.4768V16.6456H147.701Z" fill="white" fill-opacity="0.25"/>
    <path d="M134.41 26.3924C134.41 27.2785 134.325 27.9325 134.135 28.3333C133.945 28.7342 133.587 28.9029 133.017 28.9029H121.583C121.815 29.8945 122.405 30.7806 123.228 31.3713C124.072 31.9198 125.127 32.173 126.435 32.1941C127.047 32.1941 127.658 32.1097 128.249 31.9409C128.903 31.7089 129.536 31.4135 130.106 31.0126C130.317 30.8017 130.675 30.8017 130.886 31.0126C130.907 31.0337 130.929 31.0759 130.95 31.097L132.954 33.1224C133.059 33.2278 133.102 33.3755 133.102 33.5232C133.08 33.7131 133.017 33.8819 132.869 34.0084C131.962 34.9789 130.886 35.7384 129.663 36.2869C128.46 36.8143 127.152 37.0675 125.844 37.0464C124.009 37.0675 122.215 36.6034 120.633 35.6751C119.135 34.7679 117.912 33.481 117.089 31.9409C116.245 30.3375 115.802 28.5654 115.823 26.751C115.802 24.9367 116.224 23.1646 117.047 21.5612C117.848 20.0422 119.051 18.7553 120.507 17.8692C121.962 16.9409 123.671 16.4768 125.401 16.4979C127.068 16.4768 128.692 16.9409 130.106 17.8481C131.477 18.7342 132.574 20 133.27 21.4557C134.051 22.9958 134.431 24.6835 134.41 26.3924ZM125.464 21.6456C124.515 21.6245 123.608 21.9409 122.891 22.5316C122.173 23.1013 121.709 23.924 121.498 25.0422H129.283C129.114 23.9451 128.671 23.1013 127.975 22.5316C127.279 21.9409 126.393 21.6245 125.464 21.6456Z" fill="white" fill-opacity="0.25"/>
    <path d="M113.312 16.9409C113.46 16.9409 113.629 16.9831 113.734 17.1097C113.84 17.2363 113.903 17.384 113.882 17.5527V36.6667C113.882 38.6287 113.376 40.2321 112.342 41.4557C111.35 42.6793 110.021 43.6076 108.523 44.0928C107.004 44.5991 105.422 44.8734 103.819 44.8523C102.237 44.8523 100.654 44.6202 99.1564 44.1139C97.8062 43.7131 96.5403 43.0802 95.4222 42.2363C95.2745 42.1308 95.1901 41.962 95.1901 41.7932C95.1901 41.6667 95.2112 41.5401 95.2745 41.4346L96.7724 38.5865C96.9201 38.3755 97.0889 38.27 97.2366 38.27C97.342 38.27 97.4475 38.2911 97.553 38.3544C98.3969 38.8818 99.3041 39.2827 100.253 39.5359C101.266 39.789 102.321 39.9156 103.376 39.9156C104.621 39.9367 105.865 39.6202 106.962 39.0295C108.038 38.4599 108.587 37.4894 108.587 36.1392V34.2616C107.089 36.0548 105.253 36.9409 103.038 36.9409C101.372 36.962 99.7471 36.4768 98.3758 35.5696C96.9834 34.6413 95.8441 33.3544 95.1057 31.8354C93.5657 28.6076 93.5657 24.8523 95.1057 21.6034C95.8441 20.0844 96.9834 18.7975 98.3758 17.8692C99.7471 16.9409 101.372 16.4768 103.038 16.4979C105.148 16.4979 106.941 17.384 108.439 19.135L108.545 17.5527C108.587 17.1519 108.798 16.9409 109.114 16.9409H113.312ZM103.777 31.3924C104.937 31.3924 106.055 30.865 106.772 29.9578C107.574 29.0506 108.017 27.8903 108.017 26.6878C108.038 25.4852 107.595 24.3249 106.794 23.4388C106.055 22.5316 104.958 22.0042 103.798 22.0253C102.637 22.0042 101.519 22.5105 100.76 23.3966C99.937 24.2827 99.4939 25.4641 99.5361 26.6878C99.4939 27.9325 99.9159 29.135 100.739 30.0633C101.477 30.9283 102.595 31.4135 103.777 31.3924Z" fill="white" fill-opacity="0.25"/>
    <path d="M92.0042 16.6456C92.1519 16.6456 92.3207 16.6878 92.4262 16.8144C92.5317 16.9409 92.595 17.0886 92.5739 17.2574V20.9494C92.5739 21.1182 92.5317 21.2658 92.4262 21.3924C92.3207 21.4979 92.1519 21.5612 92.0042 21.5612H88.9241V36.2447C88.9241 36.4135 88.8819 36.5612 88.7764 36.6878C88.6709 36.7933 88.5021 36.8566 88.3544 36.8566H83.7342C83.5865 36.8566 83.4177 36.8144 83.3123 36.6878C83.2068 36.5612 83.1435 36.4135 83.1646 36.2447V21.5612H80.0844C79.9367 21.5612 79.768 21.519 79.6625 21.3924C79.557 21.2658 79.4937 21.1182 79.5148 20.9494V17.2574C79.5148 17.0886 79.557 16.9409 79.6625 16.8144C79.768 16.7089 79.9367 16.6456 80.0844 16.6456H83.1646V11.4768C83.1646 11.308 83.2068 11.1603 83.3123 11.0338C83.4177 10.9283 83.5865 10.865 83.7342 10.865H88.3544C88.5021 10.865 88.6709 10.9072 88.7764 11.0338C88.8819 11.1603 88.9452 11.308 88.9241 11.4768V16.6456H92.0042Z" fill="white" fill-opacity="0.25"/>
    <path d="M74.4728 14.9789C73.65 15 72.8483 14.6624 72.2787 14.0506C71.688 13.4177 71.3715 12.5949 71.3926 11.73C71.3715 10.865 71.688 10.0422 72.2787 9.40928C73.3757 8.20675 75.2323 8.10127 76.4559 9.19831C76.5403 9.2616 76.6036 9.34599 76.6669 9.40928C77.2576 10.0422 77.574 10.865 77.5529 11.73C77.574 12.5949 77.2576 13.4177 76.6669 14.0506C76.0972 14.6624 75.2955 15 74.4728 14.9789ZM71.5825 17.2363C71.5825 17.0675 71.6247 16.9198 71.7301 16.7933C71.8356 16.6878 72.0044 16.6245 72.1521 16.6245H76.7934C76.9411 16.6245 77.1099 16.6667 77.2154 16.7933C77.3209 16.9198 77.3842 17.0675 77.3631 17.2363V36.2236C77.3631 36.3924 77.3209 36.5401 77.2154 36.6667C77.1099 36.7722 76.9411 36.8354 76.7934 36.8354H72.1521C72.0044 36.8354 71.8356 36.7932 71.7301 36.6667C71.6247 36.5401 71.5614 36.3924 71.5825 36.2236V17.2363Z" fill="white" fill-opacity="0.25"/>
    <path d="M64.1771 21.6878C65.6328 22.1097 66.9197 22.9747 67.869 24.1561C68.9239 25.4219 69.4935 27.0253 69.4513 28.6709C69.4513 31.4135 68.6074 33.4599 66.9408 34.8312C65.2952 36.1814 62.7847 36.8565 59.388 36.8565H49.9155C49.7678 36.8565 49.599 36.8143 49.4935 36.6878C49.388 36.5612 49.3247 36.4135 49.3458 36.2447V9.05063C49.3458 8.88185 49.388 8.73417 49.4935 8.60759C49.599 8.5021 49.7678 8.43881 49.9155 8.43881H59.3458C61.0336 8.43881 62.4893 8.75527 63.6918 9.40928C64.8522 9.99999 65.8226 10.9072 66.4555 12.0464C67.1096 13.1856 67.4471 14.4726 67.426 15.7806C67.4471 17.0675 67.1306 18.3544 66.4555 19.4726C65.8648 20.5485 65.1053 21.2658 64.1771 21.6878ZM61.8564 16.6034C61.8564 14.8734 60.8437 14.0084 58.8184 14.0084H55.3163V19.4515H58.8184C59.7678 19.4515 60.5062 19.2194 61.0547 18.7553C61.5821 18.27 61.8564 17.5527 61.8564 16.6034ZM59.6201 31.2869C60.8015 31.2869 61.7298 31.0126 62.426 30.443C63.1222 29.8734 63.4598 29.0295 63.4598 27.8903C63.4598 26.7721 63.1222 25.9705 62.426 25.4641C61.7298 24.9156 60.8015 24.6413 59.6201 24.6413H55.3163V31.2869H59.6201Z" fill="white" fill-opacity="0.25"/>
    <path d="M16.3079 5.90718C16.7931 5.35865 17.4893 5.06329 18.2066 5.06329H22.848C23.2277 5.08439 23.5442 5.40084 23.5231 5.78059C23.5231 5.94937 23.4598 6.09705 23.3332 6.22363L14.1349 16.4346H19.1982L24.367 22.1308H14.1349L24.367 33.5021H18.1855C17.4682 33.5021 16.772 33.2068 16.2868 32.6582L5.92814 21.097C4.99987 20.0633 4.99987 18.481 5.92814 17.4473L16.3079 5.90718Z" fill="white" fill-opacity="0.25"/>
    <path d="M30.5909 44.0084C30.1057 44.557 29.4095 44.8523 28.6922 44.8523H24.0508C23.6711 44.8312 23.3546 44.5148 23.3757 44.135C23.3757 43.9662 23.439 43.8186 23.5656 43.692L32.7428 33.481H27.6795L22.5107 27.8059H32.7428L22.5107 16.4346H28.6922C29.4095 16.4346 30.1057 16.7511 30.5909 17.2785L40.9707 28.8186C41.8989 29.8523 41.8989 31.4346 40.9707 32.4684L30.5909 44.0084Z" fill="white" fill-opacity="0.25"/>
</svg>
