<svg width="129" height="50" viewBox="0 0 129 50" fill="none" xmlns="http://www.w3.org/2000/svg">
<g clip-path="url(#clip0_251_67)">
<path d="M91.7563 37.29V4.41177H98.3381V37.29H91.7563Z" fill="white" fill-opacity="0.25"/>
<path d="M15.0494 47.0563H0.939453V14.1781H14.482C21.0638 14.1781 24.8988 17.7799 24.8988 23.4138C24.8988 27.0607 22.4358 29.4175 20.731 30.2022C22.7659 31.1253 25.3707 33.2028 25.3707 37.5918C25.3707 43.7313 21.0638 47.0563 15.0494 47.0563ZM13.9611 19.9051H7.52117V27.4782H13.9611C16.7542 27.4782 18.3171 25.9541 18.3171 23.6904C18.3171 21.4293 16.7542 19.9051 13.9611 19.9051ZM14.3866 33.2506H7.52117V41.3318H14.3866C17.3705 41.3318 18.789 39.4857 18.789 37.2674C18.789 35.0515 17.3679 33.2506 14.3866 33.2506Z" fill="white" fill-opacity="0.25"/>
<path d="M45.4457 33.5725V47.0563H38.9104V33.5725L28.7773 14.1781H35.9264L42.2245 27.4304L48.4272 14.1781H55.5763L45.4457 33.5725Z" fill="white" fill-opacity="0.25"/>
<path d="M74.236 47.0563H60.126V14.1781H73.6686C80.2503 14.1781 84.0854 17.7799 84.0854 23.4138C84.0854 27.0607 81.6224 29.4175 79.9176 30.2022C81.9525 31.1253 84.5574 33.2028 84.5574 37.5918C84.5574 43.7313 80.2503 47.0563 74.236 47.0563ZM73.1477 19.9051H66.7077V27.4782H73.1477C75.9408 27.4782 77.5036 25.9541 77.5036 23.6904C77.5036 21.4293 75.9408 19.9051 73.1477 19.9051ZM73.5731 33.2506H66.7077V41.3318H73.5731C76.5571 41.3318 77.9755 39.4857 77.9755 37.2674C77.9755 35.0515 76.5571 33.2506 73.5731 33.2506Z" fill="white" fill-opacity="0.25"/>
<path d="M119.551 19.9051V47.0588H112.969V19.9051H104.162V14.1781H128.358V19.9051H119.551Z" fill="white" fill-opacity="0.25"/>
</g>
<defs>
<clipPath id="clip0_251_67">
<rect width="127.419" height="50" fill="white" transform="translate(0.939453)"/>
</clipPath>
</defs>
</svg>
