<svg width="128" height="50" viewBox="0 0 128 50" fill="none" xmlns="http://www.w3.org/2000/svg">
<path d="M106.424 42.4032V44.9023H123.636V33.5981H121.121V42.4032H106.424ZM106.424 5.08109V7.58026H121.121V16.3853H123.62V5.08109H106.424ZM97.5524 24.4786V18.6528H101.491C103.411 18.6528 104.09 19.2982 104.09 21.0361V22.0622C104.09 23.8497 103.428 24.4621 101.491 24.4621L97.5524 24.4786ZM103.792 25.5048C105.58 25.0414 106.837 23.3697 106.837 21.3671C106.837 20.1258 106.324 18.9176 105.414 18.0735C104.239 16.948 102.667 16.3853 100.614 16.3853H95.0863V33.5981H97.5524V26.7295H101.243C103.13 26.7295 103.891 27.524 103.891 29.477V33.5816H106.407V29.8742C106.407 27.1764 105.762 26.1337 103.809 25.8358L103.792 25.5048ZM83.087 26.0841H90.6672V23.8166H83.087V18.6528H91.3955V16.3853H80.5878V33.5981H91.7761V31.3307H83.087V26.0841ZM74.8612 26.9778V28.1529C74.8612 30.6355 73.9509 31.4465 71.6669 31.4465H71.1207C68.8367 31.4465 67.7278 30.7017 67.7278 27.2923V22.6746C67.7278 19.232 68.8864 18.5203 71.1704 18.5203H71.6669C73.9013 18.5203 74.613 19.3479 74.6461 21.665H77.3438C77.0956 18.2721 74.8447 16.137 71.4518 16.137C69.7967 16.137 68.423 16.6501 67.3968 17.6431C65.841 19.0996 64.9969 21.5491 64.9969 24.9917C64.9969 28.3019 65.7417 30.7679 67.2644 32.2906C68.3071 33.2837 69.6808 33.8464 71.1207 33.8464C72.5938 33.8464 73.9509 33.2506 74.6295 31.9762H74.9771V33.6147H77.2445V24.7434H70.5746V26.9944H74.8612V26.9778ZM53.1797 18.6528H55.8609C58.3932 18.6528 59.7669 19.2982 59.7669 22.7243V27.2426C59.7669 30.6852 58.3932 31.3307 55.8609 31.3307H53.1797V18.6528ZM56.076 33.5981C60.7765 33.5981 62.5143 30.0397 62.5143 24.9917C62.5143 19.8775 60.6441 16.3853 56.0264 16.3853H50.7136V33.5981H56.076ZM38.8467 26.0841H46.4269V23.8166H38.8467V18.6528H47.1552V16.3853H36.3309V33.5981H47.5193V31.3307H38.8467V26.0841ZM24.3316 16.3853H21.8159V33.5981H33.1201V31.3307H24.3316V16.3853ZM4.60303 33.5981V44.9023H21.8159V42.3866H7.1022V33.5816H4.60303V33.5981ZM4.60303 5.08109V16.3853H7.1022V7.58026H21.7993V5.08109H4.60303Z" fill="white" fill-opacity="0.25"/>
</svg>
