<svg width="165" height="50" viewBox="0 0 165 50" fill="none" xmlns="http://www.w3.org/2000/svg">
<path d="M24.2581 4.69214C18.6478 4.69214 14.0993 9.24047 14.0993 14.8509V18.6493C12.1305 19.0014 10.1436 19.4879 10.1436 20.1095V40.0109C10.1436 40.0109 10.1436 40.569 10.7514 40.8107C12.9959 41.7038 21.8081 44.8271 23.8305 45.5424C24.0969 45.6367 24.1531 45.634 24.2455 45.634C24.3426 45.634 24.3928 45.6374 24.6571 45.5438C26.6757 44.8302 35.5183 41.699 37.7488 40.8159C38.3281 40.5867 38.3447 40.019 38.3447 40.019V20.1105C38.3447 19.489 36.3855 19.0014 34.4164 18.649V14.8507C34.4167 9.24047 29.8683 4.69214 24.2581 4.69214ZM24.2581 9.54714C27.5581 9.54714 29.5657 11.5509 29.5657 14.8509V18.16C25.8397 17.8886 22.6736 17.8886 18.9471 18.16V14.8509C18.9471 11.5507 20.9576 9.54714 24.2581 9.54714ZM24.245 23.0452C28.8614 23.0526 32.7421 23.3964 32.7421 24.0536C32.7421 24.0536 32.7421 36.2729 32.7421 36.4536C32.7421 36.6345 32.7136 36.665 32.5419 36.73C32.3705 36.7952 24.6493 39.5855 24.6493 39.5855C24.6493 39.5855 24.3324 39.6907 24.2452 39.6907C24.1464 39.6907 23.8293 39.5812 23.8293 39.5812C23.8293 39.5812 16.1114 36.7936 15.9381 36.7281C15.7645 36.6629 15.7421 36.629 15.7421 36.4467C15.7421 36.2457 15.7421 24.0531 15.7421 24.0531C15.7421 23.3781 19.6288 23.0379 24.245 23.0452Z" fill="white" fill-opacity="0.25"/>
<path d="M51.4314 36.6285V23.0422H46.479V18.1725H61.9467V23.0422H57.0209V36.6285H51.4314Z" fill="white" fill-opacity="0.25"/>
<path d="M74.4816 36.6285L71.9363 30.818H69.9162V36.6285H64.3271V18.1725H74.1773C78.4934 18.1725 80.8184 21.0499 80.8184 24.5086C80.8184 27.6915 78.9643 29.3786 77.4981 30.0982L80.8464 36.6282H74.4818L74.4816 36.6285ZM75.1456 24.4806C75.1456 23.4851 74.2601 23.0418 73.3192 23.0418H69.9156V25.947H73.3192C74.2601 25.9468 75.1456 25.5051 75.1456 24.4806Z" fill="white" fill-opacity="0.25"/>
<path d="M83.7456 36.6285V18.1725H97.7467V23.0422H89.3349V24.8686H97.5533V29.7391H89.3349V31.7582H97.7467V36.6285H83.7456Z" fill="white" fill-opacity="0.25"/>
<path d="M100.657 36.6319V32.2049L107.684 23.0459H100.657V18.1761H115.072V22.5755L108.016 31.7621H115.266V36.6319H100.657Z" fill="white" fill-opacity="0.25"/>
<path d="M116.635 27.4182C116.635 21.7454 121.034 17.8716 126.734 17.8716C132.434 17.8716 136.834 21.7454 136.834 27.4182C136.834 33.0901 132.434 36.9639 126.734 36.9639C121.034 36.9639 116.635 33.0901 116.635 27.4182ZM131.162 27.4182C131.162 24.8443 129.418 22.7969 126.734 22.7969C124.05 22.7969 122.306 24.8445 122.306 27.4182C122.306 29.9912 124.05 32.0384 126.734 32.0384C129.418 32.0384 131.162 29.9908 131.162 27.4182Z" fill="white" fill-opacity="0.25"/>
<path d="M149.369 36.6319L146.824 30.8214H144.804V36.6319H139.214V18.1761H149.065C153.382 18.1761 155.707 21.0536 155.707 24.512C155.707 27.6949 153.852 29.382 152.386 30.102L155.734 36.6321H149.369V36.6319ZM150.033 24.4843C150.033 23.4885 149.148 23.0454 148.207 23.0454H144.803V25.9507H148.207C149.148 25.9509 150.033 25.5087 150.033 24.4843Z" fill="white" fill-opacity="0.25"/>
</svg>
